 <svg  version="1.0" xmlns="http://www.w3.org/2000/svg"  width="150.000000pt" height="150.000000pt" viewBox="0 0 150.000000 150.000000"  preserveAspectRatio="xMidYMid meet">  <g transform="translate(0.000000,150.000000) scale(0.100000,-0.100000)" fill="#ff9924" stroke="none"> <path d="M370 1480 c0 -13 -7 -20 -20 -20 -17 0 -20 -7 -20 -45 0 -41 -2 -45 -25 -45 -20 0 -25 -5 -25 -25 0 -18 -5 -25 -20 -25 -19 0 -20 -7 -20 -95 0 -88 1 -95 20 -95 18 0 20 -7 20 -70 0 -68 1 -70 25 -70 18 0 25 -5 25 -20 0 -17 7 -20 45 -20 43 0 45 -1 45 -30 0 -23 4 -30 20 -30 15 0 20 -7 20 -25 0 -23 4 -25 45 -25 38 0 45 -3 45 -20 0 -17 -7 -20 -45 -20 l-45 0 0 -45 c0 -38 3 -45 20 -45 23 0 26 -10 8 -28 -18 -18 -28 -15 -28 8 0 13 -7 20 -20 20 -17 0 -20 -7 -20 -45 0 -41 -2 -45 -25 -45 -20 0 -25 -5 -25 -25 0 -18 5 -25 20 -25 24 0 25 -8 4 -38 -14 -21 -14 -22 5 -22 19 0 21 6 21 55 0 48 2 55 20 55 13 0 20 7 20 20 0 15 7 20 25 20 18 0 25 -5 25 -20 0 -13 7 -20 20 -20 13 0 20 7 20 20 0 13 -7 20 -20 20 -17 0 -20 7 -20 45 0 38 3 45 20 45 13 0 20 -7 20 -20 0 -19 7 -20 120 -20 113 0 120 1 120 20 0 17 7 20 45 20 38 0 45 -3 45 -20 0 -18 7 -20 55 -20 l55 0 0 -45 c0 -38 3 -45 20 -45 15 0 20 -7 20 -25 0 -20 5 -25 25 -25 23 0 25 -3 25 -49 0 -40 -4 -50 -18 -53 -17 -3 -17 -5 0 -38 l17 -35 1 38 c0 30 4 37 20 37 17 0 20 -7 20 -45 l0 -45 -45 0 -45 0 0 45 c0 38 -3 45 -20 45 -17 0 -20 -7 -20 -45 0 -38 3 -45 20 -45 18 0 20 -7 20 -70 l0 -70 115 0 115 0 0 70 0 70 -45 0 -45 0 0 45 c0 41 -2 45 -25 45 -24 0 -25 2 -25 75 0 68 -2 75 -20 75 -13 0 -20 7 -20 20 0 15 -7 20 -25 20 -20 0 -25 5 -25 25 0 18 -5 25 -20 25 -13 0 -20 7 -20 20 0 16 -7 20 -30 20 -25 0 -30 4 -30 25 0 24 -2 25 -70 25 -63 0 -70 2 -70 20 0 17 7 20 45 20 41 0 45 2 45 25 0 20 5 25 25 25 21 0 25 5 25 30 0 27 3 30 30 30 23 0 30 4 30 20 0 13 7 20 20 20 18 0 20 7 20 70 0 68 1 70 25 70 25 0 25 0 25 95 l0 95 -45 0 -45 0 0 45 c0 43 -1 45 -30 45 -25 0 -30 4 -30 25 0 23 -4 25 -45 25 -38 0 -45 3 -45 20 0 15 -7 20 -25 20 -23 0 -25 -4 -25 -45 l0 -45 -45 0 c-41 0 -45 2 -45 25 0 20 5 25 25 25 18 0 25 5 25 20 0 18 -20 30 -20 13 0 -5 -12 -16 -26 -26 -19 -15 -28 -16 -39 -7 -8 6 -24 10 -37 8 -18 -2 -23 -9 -23 -33 0 -24 5 -31 23 -33 13 -2 29 1 36 7 10 8 21 7 42 -4 16 -8 37 -15 47 -15 22 0 23 -42 2 -60 -8 -7 -15 -29 -15 -50 0 -47 -5 -51 -38 -34 -15 8 -34 14 -43 14 -9 0 -22 7 -29 15 -8 9 -30 15 -58 15 -44 0 -45 1 -28 19 22 24 17 65 -7 69 -10 2 -30 -10 -46 -27 -16 -17 -34 -31 -40 -31 -16 0 -13 26 4 40 11 9 15 27 13 59 -3 42 -5 46 -30 49 -16 2 -28 9 -28 18 0 8 -9 14 -20 14 -13 0 -20 -7 -20 -20z m90 -65 c0 -38 -3 -45 -20 -45 -17 0 -20 7 -20 45 0 38 3 45 20 45 17 0 20 -7 20 -45z m200 20 c0 -20 -5 -25 -25 -25 -20 0 -25 5 -25 25 0 20 5 25 25 25 20 0 25 -5 25 -25z m-260 -20 c0 -16 -6 -25 -15 -25 -16 0 -19 9 -9 34 9 25 24 19 24 -9z m510 -22 c17 -16 38 -44 48 -63 9 -19 27 -39 40 -45 22 -10 24 -20 13 -66 -5 -23 -9 -25 -28 -18 -14 5 -23 17 -23 30 0 30 -28 59 -56 59 -13 0 -39 -13 -57 -30 -19 -16 -37 -27 -41 -23 -15 15 -5 54 19 69 21 14 25 24 25 65 0 58 14 63 60 22z m-70 -28 c0 -41 -2 -45 -25 -45 -21 0 -25 -5 -25 -30 0 -23 -4 -30 -20 -30 -16 0 -20 7 -20 30 0 23 4 30 20 30 17 0 20 7 20 45 0 41 2 45 25 45 23 0 25 -4 25 -45z m-420 -50 c0 -52 -1 -55 -25 -55 -24 0 -25 3 -25 55 0 52 1 55 25 55 24 0 25 -3 25 -55z m130 30 c0 -18 -5 -25 -20 -25 -16 0 -20 -7 -20 -30 0 -19 5 -30 14 -30 9 0 12 -7 9 -20 -3 -11 -9 -20 -14 -20 -5 0 -9 -11 -9 -25 0 -18 5 -25 20 -25 17 0 20 7 20 45 0 43 1 45 30 45 23 0 30 -4 30 -20 0 -17 7 -20 45 -20 41 0 45 -2 45 -25 0 -20 5 -25 25 -25 20 0 25 5 25 25 0 18 5 25 20 25 17 0 20 -7 20 -45 0 -41 2 -45 25 -45 23 0 25 -4 25 -45 0 -38 3 -45 20 -45 18 0 20 7 20 65 l0 65 55 0 55 0 0 -65 0 -65 -30 0 c-25 0 -30 -4 -30 -25 0 -20 -5 -25 -25 -25 -18 0 -25 -5 -25 -20 0 -13 -7 -20 -20 -20 -16 0 -20 -7 -20 -30 l0 -30 -165 0 -165 0 0 30 c0 25 -4 30 -25 30 -18 0 -25 5 -25 20 0 17 -7 20 -45 20 -41 0 -45 2 -45 25 0 20 5 25 25 25 24 0 25 2 25 65 0 58 2 65 20 65 15 0 20 7 20 25 0 20 5 25 25 25 18 0 25 5 25 20 0 15 -7 20 -25 20 -21 0 -25 5 -25 30 0 25 4 30 25 30 20 0 25 5 25 25 0 18 5 25 20 25 15 0 20 -7 20 -25z m-188 -50 c2 -33 7 -41 26 -43 13 -2 30 2 38 9 13 10 17 10 24 -1 6 -10 -2 -27 -26 -56 -19 -23 -34 -47 -34 -53 0 -6 -7 -11 -15 -11 -18 0 -19 12 -4 27 6 6 9 21 7 34 -2 18 -9 24 -28 24 -22 0 -25 -4 -24 -37 1 -23 -3 -38 -10 -38 -24 0 -36 25 -36 77 0 44 5 58 31 88 36 41 46 37 51 -20z m568 -55 c0 -15 -7 -20 -25 -20 -20 0 -25 -5 -25 -25 0 -18 -5 -25 -20 -25 -15 0 -20 7 -20 25 0 18 5 25 20 25 13 0 20 7 20 20 0 15 7 20 25 20 18 0 25 -5 25 -20z m122 -25 c-2 -25 -8 -45 -13 -45 -5 0 -9 20 -9 45 0 29 4 45 13 45 8 0 11 -14 9 -45z m-682 -20 c0 -18 -5 -25 -20 -25 -15 0 -20 7 -20 25 0 18 5 25 20 25 15 0 20 -7 20 -25z m0 -90 c0 -18 -5 -25 -20 -25 -16 0 -20 -7 -20 -37 0 -53 -13 -32 -20 32 l-6 55 33 0 c29 0 33 -3 33 -25z m380 -310 l0 -45 -70 0 -70 0 0 45 0 45 70 0 70 0 0 -45z m460 -485 c0 -18 -7 -20 -65 -20 -58 0 -65 2 -65 20 0 18 7 20 65 20 58 0 65 -2 65 -20z"/> <path d="M660 1105 c0 -58 2 -65 20 -65 18 0 20 7 20 65 0 58 -2 65 -20 65 -18 0 -20 -7 -20 -65z"/> <path d="M472 1144 c-17 -11 -22 -25 -22 -57 0 -38 5 -48 53 -93 28 -28 64 -58 80 -67 26 -17 27 -17 27 3 0 16 -7 20 -30 20 -23 0 -30 4 -30 20 0 13 -7 20 -20 20 -15 0 -20 7 -20 25 0 20 -5 25 -25 25 -23 0 -25 4 -25 45 0 41 2 45 25 45 16 0 25 6 25 15 0 19 -10 19 -38 -1z"/> <path d="M880 640 c0 -13 -7 -20 -20 -20 -15 0 -20 -7 -20 -25 0 -18 5 -25 20 -25 11 0 20 6 20 14 0 7 7 19 15 26 12 10 15 10 15 -3 0 -9 5 -19 10 -22 6 -4 10 10 10 34 0 37 -2 41 -25 41 -18 0 -25 -5 -25 -20z"/> <path d="M330 540 c0 -23 4 -30 20 -30 16 0 20 7 20 30 0 23 -4 30 -20 30 -16 0 -20 -7 -20 -30z"/> <path d="M550 540 c0 -29 -2 -30 -45 -30 -38 0 -45 -3 -45 -20 0 -13 -7 -20 -20 -20 -15 0 -20 -7 -20 -25 0 -23 -4 -25 -45 -25 l-45 0 0 45 c0 41 -2 45 -25 45 -23 0 -25 -4 -25 -45 0 -38 -3 -45 -20 -45 -13 0 -20 -7 -20 -20 0 -18 7 -20 65 -20 63 0 65 -1 65 -25 0 -18 -5 -25 -20 -25 -13 0 -20 -7 -20 -20 0 -17 -7 -20 -45 -20 -41 0 -45 -2 -45 -25 0 -23 4 -25 45 -25 41 0 45 2 45 25 0 18 5 25 20 25 13 0 20 7 20 20 0 15 7 20 25 20 20 0 25 5 25 25 0 18 5 25 20 25 13 0 20 7 20 20 0 15 7 20 25 20 23 0 25 -4 25 -45 0 -41 -2 -45 -25 -45 -25 0 -25 0 -25 -95 0 -88 -1 -95 -20 -95 -15 0 -20 -7 -20 -25 0 -23 -4 -25 -45 -25 l-45 0 0 -45 c0 -38 3 -45 19 -45 13 0 21 8 23 22 4 31 43 36 71 10 19 -16 41 -20 140 -24 l117 -5 0 43 0 44 45 0 c38 0 45 -3 45 -20 0 -15 7 -20 25 -20 19 0 25 -5 25 -22 0 -23 1 -23 140 -23 l140 0 0 68 0 67 -65 0 -65 0 0 50 c0 49 -1 50 -30 50 l-30 0 0 115 0 115 30 0 c23 0 30 4 30 20 0 16 -7 20 -30 20 -27 0 -30 3 -30 30 0 25 -4 30 -25 30 l-25 0 0 -120 0 -120 -165 0 -165 0 0 45 c0 43 1 45 30 45 l30 0 0 75 0 75 -30 0 c-27 0 -30 -3 -30 -30z m40 -57 c0 -26 -36 -63 -62 -63 -13 0 -18 8 -18 25 0 18 5 25 20 25 13 0 20 7 20 18 0 10 5 23 12 30 15 15 28 -2 28 -35z m290 -238 c0 -41 2 -45 25 -45 21 0 25 -5 25 -30 0 -29 -2 -30 -45 -30 -42 0 -45 -2 -45 -26 0 -21 -4 -25 -22 -22 -13 2 -24 11 -26 22 -2 10 0 16 5 13 5 -3 15 -2 23 4 12 7 10 9 -7 9 -19 0 -23 6 -23 30 0 23 -4 30 -20 30 -16 0 -20 7 -20 36 0 29 -3 34 -13 25 -10 -8 -17 -7 -25 1 -9 9 -12 -4 -12 -55 l0 -67 -112 0 c-96 1 -110 3 -95 14 9 7 17 21 17 30 0 9 8 16 20 16 16 0 20 7 20 33 -1 29 -2 30 -12 12 -16 -28 -31 -36 -43 -23 -7 7 -6 12 3 15 6 3 12 16 12 29 l0 24 185 0 185 0 0 -45z m-122 -67 c24 -38 21 -48 -17 -48 -15 0 -36 -9 -46 -20 -19 -21 -35 -18 -35 6 0 8 10 14 24 14 25 0 36 16 36 56 0 33 14 30 38 -8z m-98 -108 c0 -19 -7 -20 -100 -20 -93 0 -100 1 -100 20 0 19 7 20 100 20 93 0 100 -1 100 -20z m420 0 c0 -19 -7 -20 -100 -20 -93 0 -100 1 -100 20 0 19 7 20 100 20 93 0 100 -1 100 -20z"/> <path d="M950 557 c8 -7 21 -19 28 -27 10 -12 12 -9 12 13 0 23 -4 27 -27 27 -24 -1 -26 -3 -13 -13z"/> <path d="M840 465 c0 -29 4 -45 13 -45 8 0 12 16 12 45 0 29 -4 45 -12 45 -9 0 -13 -16 -13 -45z"/> <path d="M180 335 c0 -43 1 -45 30 -45 29 0 30 2 30 45 0 43 -1 45 -30 45 -29 0 -30 -2 -30 -45z"/> </g> </svg> 